:FULLY-SPECIFIED
:FORCE-ALL-JOINTS-BE-3DOF
:DEGREES
238
root 6.06511 15.8237 -25.7514 6.15503 29.7017 -7.02064
lfemur -32.6876 22.5462 -10.4393
ltibia 39.5503 0 0
lfoot -22.1915 0.204258 0
ltoes 35.1175 0 0
rfemur -11.3158 -0.553405 0.114542
rtibia 39.4814 0 0
rfoot -38.3979 -22.2501 0
rtoes 56.7693 0 0
lowerback -0.974045 -2.43188 1.93254
upperback -1.66485 -3.15155 1.8846
thorax -1.12504 -1.5723 0.825073
lowerneck -10.5602 -3.82159 1.52822
upperneck 2.50467 -5.29975 0.433175
head 2.56535 -2.58247 -0.410199
lclavicle -2.25118e-014 2.47052e-015 0
lhumerus -56.8648 -34.8862 122.4
lradius 61.3422 0 0
lwrist 18.7821 0 0
lhand 10.034 15.3565 0
lfingers 7.12502 0 0
lthumb 34.9221 40.1028 0
rclavicle -2.25118e-014 2.47052e-015 0
rhumerus -30.8239 -20.4781 -51.5877
rradius 58.4723 0 0
rwrist 8.7892 0 0
rhand -19.3139 -33.5326 0
rfingers 7.12502 0 0
rthumb 7.00105 -721.514 0
239
root 6.12451 15.8485 -25.7536 6.30877 30.9755 -7.08751
lfemur -33.8626 23.2795 -10.8935
ltibia 40.7058 0 0
lfoot -21.6355 0.469527 0
ltoes 34.8216 0 0
rfemur -10.8824 0.0408552 0.482154
rtibia 39.3223 0 0
rfoot -38.3458 -23.5502 0
rtoes 56.5347 0 0
lowerback -0.85245 -2.49897 1.95092
upperback -1.65628 -3.24255 2.14802
thorax -1.17359 -1.61728 1.09436
lowerneck -10.4875 -4.0128 1.29676
upperneck 2.46171 -5.52191 0.4264
head 2.54412 -2.69811 -0.38263
lclavicle -2.25385e-014 4.58096e-015 0
lhumerus -56.6725 -34.5548 122.458
lradius 61.5337 0 0
lwrist 18.5342 0 0
lhand 9.1954 14.9209 0
lfingers 7.12502 0 0
lthumb 34.1582 40.088 0
rclavicle -2.25385e-014 4.58096e-015 0
rhumerus -32.012 -20.0916 -53.1505
rradius 58.8308 0 0
rwrist 9.70312 0 0
rhand -18.7723 -32.4881 0
rfingers 7.12502 0 0
rthumb 7.52397 -729.191 0
240
root 6.18393 15.8715 -25.7542 6.49181 32.2283 -7.09326
lfemur -34.9568 23.957 -11.3337
ltibia 41.8113 0 0
lfoot -21.1025 0.687778 0
ltoes 34.5605 0 0
rfemur -10.5015 0.602434 0.849757
rtibia 39.1833 0 0
rfoot -38.2543 -24.7758 0
rtoes 56.2997 0 0
lowerback -0.72954 -2.56534 1.96063
upperback -1.64206 -3.33274 2.39161
thorax -1.21735 -1.66189 1.34805
lowerneck -10.4107 -4.20195 1.0704
upperneck 2.42182 -5.74304 0.426305
head 2.52417 -2.81299 -0.353597
lclavicle -2.25423e-014 6.59174e-015 0
lhumerus -56.4775 -34.2477 122.496
lradius 61.7145 0 0
lwrist 18.2975 0 0
lhand 8.40742 14.5068 0
lfingers 7.12502 0 0
lthumb 33.4409 40.0723 0
rclavicle -2.25423e-014 6.59174e-015 0
rhumerus -33.1709 -19.6917 -54.6768
rradius 59.179 0 0
rwrist 10.5763 0 0
rhand -18.2695 -31.4749 0
rfingers 7.12502 0 0
rthumb 8.00933 -736.507 0
241
root 6.24323 15.8927 -25.7533 6.70574 33.4565 -7.03426
lfemur -35.9635 24.574 -11.758
ltibia 42.862 0 0
lfoot -20.5951 0.855458 0
ltoes 34.3369 0 0
rfemur -10.1768 1.12854 1.21682
rtibia 39.0652 0 0
rfoot -38.1223 -25.9203 0
rtoes 56.0649 0 0
lowerback -0.605513 -2.63073 1.9612
upperback -1.6219 -3.42178 2.61381
thorax -1.25596 -1.70596 1.58478
lowerneck -10.3296 -4.38854 0.849939
upperneck 2.38525 -5.96264 0.433193
head 2.50562 -2.92682 -0.323102
lclavicle -2.25229e-014 8.49356e-015 0
lhumerus -56.2801 -33.9667 122.512
lradius 61.8838 0 0
lwrist 18.0732 0 0
lhand 7.67389 14.1158 0
lfingers 7.12502 0 0
lthumb 32.7737 40.0558 0
rclavicle -2.25229e-014 8.49356e-015 0
rhumerus -34.2962 -19.2779 -56.1613
rradius 59.515 0 0
rwrist 11.4055 0 0
rhand -17.8088 -30.4969 0
rfingers 7.12502 0 0
rthumb 8.45408 -743.436 0
242
root 6.30232 15.9119 -25.7507 6.95215 34.6567 -6.90685
lfemur -36.8761 25.1256 -12.1647
ltibia 43.853 0 0
lfoot -20.1158 0.969015 0
ltoes 34.1533 0 0
rfemur -9.91167 1.61639 1.58282
rtibia 38.9685 0 0
rfoot -37.9486 -26.977 0
rtoes 55.831 0 0
lowerback -0.48057 -2.6949 1.95217
upperback -1.59552 -3.50935 2.81306
thorax -1.28904 -1.74934 1.80317
lowerneck -10.2442 -4.57206 0.636135
upperneck 2.35227 -6.18019 0.447367
head 2.48857 -3.03935 -0.29115
lclavicle -2.24804e-014 1.02771e-014 0
lhumerus -56.0808 -33.7138 122.505
lradius 62.0411 0 0
lwrist 17.8626 0 0
lhand 6.99865 13.7497 0
lfingers 7.12502 0 0
lthumb 32.16 40.0386 0
rclavicle -2.24804e-014 1.02771e-014 0
rhumerus -35.3838 -18.8502 -57.5987
rradius 59.8366 0 0
rwrist 12.1872 0 0
rhand -17.3934 -29.5581 0
rfingers 7.12502 0 0
rthumb 8.85517 -749.949 0
243
root 6.36109 15.9289 -25.7464 7.23263 35.8255 -6.70741
lfemur -37.6878 25.607 -12.5521
ltibia 44.7794 0 0
lfoot -19.6674 1.0249 0
ltoes 34.0125 0 0
rfemur -9.70975 2.06319 1.94721
rtibia 38.8939 0 0
rfoot -37.7319 -27.9391 0
rtoes 55.5986 0 0
lowerback -0.35491 -2.75759 1.93309
upperback -1.56263 -3.5951 2.9878
thorax -1.31622 -1.79186 2.00185
lowerneck -10.1543 -4.75201 0.42977
upperneck 2.32317 -6.39518 0.46913
head 2.47313 -3.15028 -0.257743
lclavicle -2.24146e-014 1.19331e-014 0
lhumerus -55.8798 -33.4908 122.474
lradius 62.1854 0 0
lwrist 17.6668 0 0
lhand 6.38552 13.4105 0
lfingers 7.12502 0 0
lthumb 31.6034 40.0206 0
rclavicle -2.24146e-014 1.19331e-014 0
rhumerus -36.4295 -18.4083 -58.9837
rradius 60.1421 0 0
rwrist 12.9181 0 0
rhand -17.0263 -28.6622 0
rfingers 7.12502 0 0
rthumb 9.20957 -756.019 0
244
root 6.41941 15.9436 -25.7402 7.54877 36.9595 -6.43229
lfemur -38.3921 26.0135 -12.9182
ltibia 45.6362 0 0
lfoot -19.2526 1.01955 0
ltoes 33.9172 0 0
rfemur -9.57455 2.46615 2.30948
rtibia 38.8422 0 0
rfoot -37.4711 -28.7999 0
rtoes 55.3683 0 0
lowerback -0.228733 -2.81855 1.90347
upperback -1.52292 -3.67872 3.13646
thorax -1.33714 -1.83336 2.17946
lowerneck -10.0598 -4.92788 0.231618
upperneck 2.2982 -6.60711 0.498784
head 2.45941 -3.25934 -0.222885
lclavicle -2.23254e-014 1.34523e-014 0
lhumerus -55.6775 -33.2997 122.418
lradius 62.3161 0 0
lwrist 17.4872 0 0
lhand 5.83834 13.0999 0
lfingers 7.12502 0 0
lthumb 31.1074 40.002 0
rclavicle -2.23254e-014 1.34523e-014 0
rhumerus -37.4292 -17.9521 -60.3111
rradius 60.4293 0 0
rwrist 13.5948 0 0
rhand -16.7107 -27.8133 0
rfingers 7.12502 0 0
rthumb 9.51421 -761.62 0
245
root 6.47719 15.9558 -25.7321 7.90214 38.0552 -6.07785
lfemur -38.9823 26.3403 -13.2614
ltibia 46.4186 0 0
lfoot -18.8739 0.949425 0
ltoes 33.8699 0 0
rfemur -9.50959 2.82248 2.66909
rtibia 38.814 0 0
rfoot -37.165 -29.5527 0
rtoes 55.1407 0 0
lowerback -0.102238 -2.87753 1.86287
upperback -1.47612 -3.75987 3.25749
thorax -1.3514 -1.87368 2.33461
lowerneck -9.96068 -5.09917 0.0424557
upperneck 2.27764 -6.81545 0.536632
head 2.44752 -3.36627 -0.186578
lclavicle -2.22126e-014 1.48252e-014 0
lhumerus -55.4744 -33.1423 122.336
lradius 62.4323 0 0
lwrist 17.3248 0 0
lhand 5.36093 12.8198 0
lfingers 7.12502 0 0
lthumb 30.6754 39.9827 0
rclavicle -2.22126e-014 1.48252e-014 0
rhumerus -38.3786 -17.4814 -61.5754
rradius 60.6963 0 0
rwrist 14.2139 0 0
rhand -16.4498 -27.0152 0
rfingers 7.12502 0 0
rthumb 9.76607 -766.722 0
246
root 6.5343 15.9654 -25.722 8.29434 39.1092 -5.64045
lfemur -39.4516 26.5825 -13.5798
ltibia 47.1216 0 0
lfoot -18.5341 0.810966 0
ltoes 33.8734 0 0
rfemur -9.51841 3.12939 3.02551
rtibia 38.8099 0 0
rfoot -36.8122 -30.1908 0
rtoes 54.9165 0 0
lowerback 0.0243755 -2.93428 1.81082
upperback -1.42194 -3.83821 3.34932
thorax -1.35866 -1.91265 2.46594
lowerneck -9.85672 -5.26536 -0.136942
upperneck 2.26177 -7.01969 0.582977
head 2.43756 -3.47077 -0.148826
lclavicle -2.20762e-014 1.60428e-014 0
lhumerus -55.2707 -33.0204 122.226
lradius 62.5335 0 0
lwrist 17.181 0 0
lhand 4.95713 12.5719 0
lfingers 7.12502 0 0
lthumb 30.311 39.9628 0
rclavicle -2.20762e-014 1.60428e-014 0
rhumerus -39.2736 -16.9959 -62.7715
rradius 60.941 0 0
rwrist 14.7722 0 0
rhand -16.2468 -26.2719 0
rfingers 7.12502 0 0
rthumb 9.96208 -771.3 0
247
root 6.59063 15.9722 -25.7097 8.72696 40.118 -5.11646
lfemur -39.7934 26.7355 -13.8716
ltibia 47.7404 0 0
lfoot -18.2358 0.600623 0
ltoes 33.9304 0 0
rfemur -9.60454 3.3841 3.37821
rtibia 38.8307 0 0
rfoot -36.4117 -30.7074 0
rtoes 54.6963 0 0
lowerback 0.150908 -2.98856 1.74685
upperback -1.36008 -3.91343 3.4104
thorax -1.35852 -1.95012 2.57208
lowerneck -9.74782 -5.42595 -0.305799
upperneck 2.25084 -7.21933 0.63812
head 2.42966 -3.57257 -0.109631
lclavicle -2.1916e-014 1.70955e-014 0
lhumerus -55.0668 -32.936 122.088
lradius 62.6188 0 0
lwrist 17.057 0 0
lhand 4.63075 12.3582 0
lfingers 7.12502 0 0
lthumb 30.0177 39.9423 0
rclavicle -2.1916e-014 1.70955e-014 0
rhumerus -40.11 -16.4955 -63.894
rradius 61.1616 0 0
rwrist 15.2661 0 0
rhand -16.1047 -25.5871 0
rfingers 7.12502 0 0
rthumb 10.0992 -775.325 0
